<svg width="274" height="54" viewBox="0 0 274 54" fill="none" xmlns="http://www.w3.org/2000/svg">
<path d="M10.568 18.08V52H1.48V18.08H10.568ZM5.96 0.607998C7.58133 0.607998 8.904 1.12 9.928 2.144C10.9947 3.12533 11.528 4.384 11.528 5.92C11.528 7.456 10.9947 8.736 9.928 9.76C8.904 10.7413 7.58133 11.232 5.96 11.232C4.33867 11.232 3.016 10.7413 1.992 9.76C0.968 8.736 0.456 7.456 0.456 5.92C0.456 4.384 0.968 3.12533 1.992 2.144C3.016 1.12 4.33867 0.607998 5.96 0.607998ZM33.4305 7.712C39.1905 7.712 43.6492 8.90666 46.8065 11.296C50.0065 13.6853 51.6065 17.248 51.6065 21.984C51.6065 26.9333 50.0278 30.6667 46.8705 33.184C43.7132 35.6587 39.4892 36.896 34.1985 36.896H29.1425V52H19.7345V7.712H33.4305ZM33.4305 29.984C36.1612 29.984 38.2518 29.3653 39.7025 28.128C41.1532 26.8907 41.8785 24.8427 41.8785 21.984C41.8785 16.992 39.0198 14.496 33.3025 14.496H29.1425V29.984H33.4305ZM75.299 17.056C78.243 17.056 80.547 17.9733 82.211 19.808C83.9177 21.6 84.771 24.096 84.771 27.296V52H75.683V28.832C75.683 26.9973 75.363 25.7173 74.723 24.992C74.083 24.224 73.1657 23.84 71.971 23.84C69.5817 23.84 67.4057 25.3973 65.443 28.512V52H56.355V4.576L65.443 3.616V21.92C66.8083 20.2987 68.2803 19.0827 69.859 18.272C71.4803 17.4613 73.2937 17.056 75.299 17.056ZM107.69 17.056C112.767 17.056 116.735 18.656 119.594 21.856C122.452 25.0133 123.882 29.408 123.882 35.04C123.882 38.624 123.22 41.7813 121.898 44.512C120.618 47.2 118.74 49.2907 116.266 50.784C113.834 52.2773 110.954 53.024 107.626 53.024C102.548 53.024 98.5588 51.4453 95.6575 48.288C92.7988 45.088 91.3695 40.672 91.3695 35.04C91.3695 31.456 92.0095 28.32 93.2895 25.632C94.6122 22.9013 96.4895 20.7893 98.9215 19.296C101.396 17.8027 104.319 17.056 107.69 17.056ZM107.69 23.84C105.386 23.84 103.658 24.7573 102.506 26.592C101.396 28.384 100.842 31.2 100.842 35.04C100.842 38.88 101.396 41.7173 102.506 43.552C103.658 45.344 105.364 46.24 107.626 46.24C109.887 46.24 111.572 45.344 112.682 43.552C113.834 41.7173 114.41 38.88 114.41 35.04C114.41 31.2 113.855 28.384 112.746 26.592C111.636 24.7573 109.951 23.84 107.69 23.84ZM149.737 17.056C152.723 17.056 155.049 17.9733 156.713 19.808C158.377 21.6 159.208 24.096 159.208 27.296V52H150.121V28.832C150.121 26.9973 149.801 25.7173 149.161 24.992C148.563 24.224 147.646 23.84 146.409 23.84C145.129 23.84 143.955 24.2453 142.889 25.056C141.865 25.824 140.862 26.9973 139.881 28.576V52H130.793V18.08H138.665L139.369 22.368C140.777 20.6187 142.313 19.296 143.977 18.4C145.683 17.504 147.603 17.056 149.737 17.056ZM196.527 34.272C196.527 34.6987 196.463 35.872 196.335 37.792H175.151C175.45 40.864 176.282 43.04 177.647 44.32C179.012 45.6 180.868 46.24 183.215 46.24C184.666 46.24 186.031 46.0053 187.311 45.536C188.591 45.0667 189.978 44.32 191.471 43.296L195.247 48.416C191.45 51.488 187.162 53.024 182.383 53.024C177.05 53.024 172.954 51.424 170.095 48.224C167.236 45.024 165.807 40.6933 165.807 35.232C165.807 31.776 166.404 28.6827 167.599 25.952C168.836 23.1787 170.607 21.0027 172.911 19.424C175.258 17.8453 178.031 17.056 181.231 17.056C186.052 17.056 189.807 18.5707 192.495 21.6C195.183 24.6293 196.527 28.8533 196.527 34.272ZM187.503 31.712C187.503 26.08 185.476 23.264 181.423 23.264C179.546 23.264 178.074 23.968 177.007 25.376C175.983 26.7413 175.364 28.9813 175.151 32.096H187.503V31.712ZM237.738 8.864V52H228.842V17.824L219.37 23.648L215.402 17.504L229.738 8.864H237.738ZM258.542 8.032C261.528 8.032 264.11 8.58666 266.286 9.696C268.462 10.7627 270.104 12.2347 271.214 14.112C272.366 15.9467 272.942 17.9947 272.942 20.256C272.942 22.6027 272.43 24.864 271.406 27.04C270.424 29.216 268.718 31.6693 266.286 34.4C263.896 37.1307 260.398 40.6507 255.79 44.96H273.902L272.878 52H245.422V45.408C250.798 40.032 254.68 36.0213 257.07 33.376C259.459 30.7307 261.144 28.4907 262.126 26.656C263.107 24.8213 263.598 22.944 263.598 21.024C263.598 19.1893 263.064 17.7387 261.998 16.672C260.931 15.6053 259.502 15.072 257.71 15.072C256.131 15.072 254.723 15.4347 253.486 16.16C252.248 16.8427 250.947 17.9947 249.582 19.616L244.142 15.264C247.811 10.4427 252.611 8.032 258.542 8.032Z" fill="url(#paint0_linear)"/>
<defs>
<linearGradient id="paint0_linear" x1="268.333" y1="40.4569" x2="-11.6658" y2="35.1005" gradientUnits="userSpaceOnUse">
<stop stop-color="#826C45"/>
<stop offset="1" stop-color="#DBC59F"/>
</linearGradient>
</defs>
</svg>
